<svg width="400" height="34" viewBox="0 0 400 34" fill="none" xmlns="http://www.w3.org/2000/svg">
<path opacity="0.5" d="M399.131 15.7839H247.688L261.127 1.44745C261.457 1.10282 261.439 0.551418 261.074 0.224022C260.727 -0.103373 260.17 -0.0861417 259.84 0.275716L240.056 21.3841C239.969 21.453 239.899 21.522 239.83 21.6253L230.876 31.1887L216.377 16.6972L230.668 1.44745C230.998 1.10282 230.981 0.551418 230.615 0.224022C230.268 -0.103373 229.711 -0.0861417 229.381 0.275716L215.143 15.4738L200.156 0.465261C200.122 0.430798 200.07 0.413567 200.035 0.396336C199.983 0.361873 199.93 0.32741 199.878 0.310179C199.826 0.292948 199.774 0.292948 199.722 0.275716C199.67 0.275716 199.6 0.241254 199.548 0.241254C199.496 0.241254 199.461 0.241254 199.409 0.258485C199.339 0.258485 199.27 0.275716 199.218 0.310179C199.165 0.32741 199.131 0.361873 199.096 0.396336C199.044 0.430798 198.992 0.44803 198.957 0.482492L184.736 15.5771L169.211 0.258485C168.863 -0.0861417 168.324 -0.0861417 167.976 0.258485C167.629 0.603112 167.629 1.13728 167.976 1.48191L183.484 16.8523L169.976 31.206L154.694 16.0596L138.769 0.258485C138.421 -0.0861417 137.882 -0.0861417 137.535 0.258485C137.187 0.603112 137.187 1.13728 137.535 1.48191L151.965 15.7839H0.869263C0.382476 15.7839 0 16.163 0 16.6455C0 17.128 0.382476 17.5071 0.869263 17.5071H153.72L157.458 21.2118H17.8199C17.3331 21.2118 16.9506 21.5909 16.9506 22.0734C16.9506 22.5558 17.3331 22.9349 17.8199 22.9349H159.197L170.028 33.67L184.718 18.0585L200.469 33.67L215.195 17.9551L230.911 33.67L240.977 22.9349H382.284C382.771 22.9349 383.154 22.5558 383.154 22.0734C383.154 21.5909 382.771 21.2118 382.284 21.2118H242.594L246.071 17.5071H399.131C399.618 17.5071 400 17.128 400 16.6455C400 16.163 399.618 15.7839 399.131 15.7839ZM200.435 31.1887L185.918 16.8006L199.565 2.30901L213.978 16.7316L200.435 31.1887Z" fill="#816A6A"/>
</svg>
